@startuml
class com.example.medshering.HomeFragment {
~ FirebaseFirestore mFirestore
~ FirebaseAuth mAuth
~ RecyclerView homeListView
~ List<AdPost> adList
~ AdRecycleAdapter adRecycleAdapter
~ List<User> userList
~ DocumentSnapshot lastVisible
~ Boolean isFirstPageFirstLoaded
+ View onCreateView(LayoutInflater,ViewGroup,Bundle)
+ void loadMorePost()
}
class com.example.medshering.SetupActivity {
~ CircleImageView setupImage
~ Uri imageUri
~ EditText mFirstName
~ EditText mLastName
~ EditText mBio
~ Button mSaveBtn
~ FirebaseAuth mAuth
~ StorageReference mStorageRef
~ FirebaseFirestore mFirestore
~ String firstName
~ String lastName
~ String biography
~ String user_id
~ boolean isImageChanged
# void onCreate(Bundle)
# void onActivityResult(int,int,Intent)
- void popUpImagePicker()
- void sendToMain()
}
class com.example.medshering.AdPostId {
+ String adPostId
+ T withId(String)
}
class com.example.medshering.NewPostActivity {
~ android.support.v7.widget.Toolbar mToolbar
~ TextView mChoosePhoto
~ EditText mTitle
~ EditText mDesc
~ EditText mContent
~ Button mAddBtn
~ FirebaseAuth mAuth
~ StorageReference mStorageRef
~ FirebaseFirestore mFirestore
~ Uri postImageUri
~ String currUserId
~ Bitmap compressedImageFile
# void onCreate(Bundle)
- void sendToMain()
# void onActivityResult(int,int,Intent)
}
class com.example.medshering.AdPost {
+ String user_id
+ Date timestamp
+ String getUser_id()
+ void setUser_id(String)
+ String getTitle()
+ void setTitle(String)
+ String getDescription()
+ void setDescription(String)
+ String getContent()
+ void setContent(String)
+ String getImage()
+ void setImage(String)
+ String getThumb()
+ void setThumb(String)
+ Date getTimestamp()
+ void setTimestamp(Date)
}
class com.example.medshering.CommentsRecyclerAdapter {
+ List<Comments> commentsList
+ Context context
- FirebaseFirestore mFirestore
- FirebaseAuth mAuth
+ CommentsRecyclerAdapter.ViewHolder onCreateViewHolder(ViewGroup,int)
+ void onBindViewHolder(CommentsRecyclerAdapter.ViewHolder,int)
+ int getItemCount()
}
class com.example.medshering.CommentsRecyclerAdapter.ViewHolder {
- View mView
- TextView comment_message
- CircleImageView comment_image
- TextView comment_username
+ void setComment_message(String)
+ void setUserData(String,String,String)
}
class com.example.medshering.AccountFragment {
~ FirebaseAuth mAuth
~ FirebaseFirestore mFirestore
~ String currUserId
~ RecyclerView userAdListView
~ List<AdPost> userAdList
~ AccountAdRecycleAdapter accountAdRecycleAdapter
+ View onCreateView(LayoutInflater,ViewGroup,Bundle)
}
class com.example.medshering.Comments {
- String message
- Date timestamp
+ String getMessage()
+ void setMessage(String)
+ String getUser_id()
+ void setUser_id(String)
+ Date getTimestamp()
+ void setTimestamp(Date)
}
class com.example.medshering.AnotherAccountFragment {
~ FirebaseAuth mAuth
~ FirebaseFirestore mFirestore
~ String userId
~ RecyclerView userAdListView
~ List<AdPost> userAdList
~ AnotherAccountAdRecycleAdapter anotherAccountAdRecycleAdapter
+ View onCreateView(LayoutInflater,ViewGroup,Bundle)
}
class com.example.medshering.User {
- String first
+ String getFirst()
+ void setFirst(String)
+ String getLast()
+ void setLast(String)
+ String getImage()
+ void setImage(String)
+ String getBio()
+ void setBio(String)
}
class com.example.medshering.RegisterActivity {
~ EditText mEmail
~ EditText mPassword
~ EditText mConfirmPassword
~ Button mRegisterBtn
~ FirebaseAuth mAuth
# void onCreate(Bundle)
# void onStart()
- void sendToMain()
- void sendToSetup()
+ void clickToLogin(View)
}
class com.example.medshering.PostFragment {
~ FirebaseAuth mAuth
~ FirebaseFirestore mFirestore
- CircleImageView userProfileImageView
- TextView userNameView
- TextView dateView
- TextView titleView
- ImageView ImageView
- TextView descView
- TextView contentView
- ImageView likeBtn
- TextView likeCounter
+ View onCreateView(LayoutInflater,ViewGroup,Bundle)
+ void setUserData(String,String,String)
+ void setAdData(String,String,String,String,String)
}
class com.example.medshering.LoginActivity {
~ EditText mEmail
~ EditText mPassword
~ Button mLoginBtn
~ FirebaseAuth mAuth
# void onCreate(Bundle)
+ void clickToRegister(View)
- void sendToMain()
}
class com.example.medshering.BottomNavigationViewHelper {
~ {static} void removeShiftMode(BottomNavigationView)
}
class com.example.medshering.MainActivity {
~ android.support.v7.widget.Toolbar mMainToolbar
~ FirebaseAuth mAuth
~ FirebaseFirestore mFirestore
+ {static} String currentUserId
~ BottomNavigationView bottomNav
~ HomeFragment homeFragment
~ NotificationFragment notificationFragment
~ AccountFragment accountFragment
+ {static} PostFragment adPostFragment
# void onCreate(Bundle)
# void onStart()
+ boolean onCreateOptionsMenu(Menu)
+ boolean onOptionsItemSelected(MenuItem)
- void sendToAddPost()
- void sendToSettings()
- void logOut()
- void sendToLogin()
- void replaceFragment(android.support.v4.app.Fragment,android.support.v4.app.Fragment)
- void initializeFragment()
}
class com.example.medshering.AccountAdRecycleAdapter {
+ List<AdPost> userAdList
- FirebaseAuth mAuth
- FirebaseFirestore mFirestore
- String currUserId
+ Context context
+ int getItemViewType(int)
+ RecyclerView.ViewHolder onCreateViewHolder(ViewGroup,int)
+ void onBindViewHolder(RecyclerView.ViewHolder,int)
+ int getItemCount()
+ void goToAdFragment(String,String,View)
}
class com.example.medshering.AccountAdRecycleAdapter.ViewHolderAd {
- View mView
- TextView adTitleView
- ImageView adImageView
- TextView adDescView
+ void setaddata(String,String,String)
}
class com.example.medshering.AccountAdRecycleAdapter.ViewHolderUserData {
- View mView
- CircleImageView userImageView
- TextView userNameView
- TextView userBioView
- TextView userReadersCounter
+ void setUserData(String,String,String,String)
+ void setUserReadersCounter(String)
}
class com.example.medshering.CommentsActivity {
- Toolbar commentToolbar
- EditText comment_field
- ImageView comment_post_btn
- RecyclerView comment_list
- CommentsRecyclerAdapter commentsRecyclerAdapter
- List<Comments> commentsList
- FirebaseFirestore firebaseFirestore
- FirebaseAuth firebaseAuth
- String ad_post_id
- String current_user_id
# void onCreate(Bundle)
}
class com.example.medshering.AnotherAccountAdRecycleAdapter {
+ List<AdPost> userAdList
- FirebaseAuth mAuth
- FirebaseFirestore mFirestore
- String anotherUserId
- String currUserId
+ Context context
~ int counterGlobal
+ int getItemViewType(int)
+ RecyclerView.ViewHolder onCreateViewHolder(ViewGroup,int)
+ void onBindViewHolder(RecyclerView.ViewHolder,int)
+ int getItemCount()
+ void goToAdPostFragment(String,String,View)
}
class com.example.medshering.AnotherAccountAdRecycleAdapter.ViewHolder {
- View mView
- TextView adTitleView
- ImageView adImageView
- TextView adDescView
+ void setAdData(String,String,String)
}
class com.example.medshering.AnotherAccountAdRecycleAdapter.ViewHolderUserData {
- View mView
- CircleImageView userImageView
- TextView userNameView
- TextView userBioView
- TextView userReadersCounter
- ImageView userReadBtn
+ void setUserData(String,String,String,String)
+ void setUserReadersCounter(String)
}
class com.example.medshering.AdRecycleAdapter {
+ List<AdPost> adList
+ List<User> userList
+ Context context
- FirebaseFirestore mFirestore
- FirebaseAuth mAuth
~ Boolean currUserLiked
+ void goToAdPostFragment(String,String,View)
+ void goToUserProfile(String,View)
+ ViewHolder onCreateViewHolder(ViewGroup,int)
+ void onBindViewHolder(ViewHolder,int)
+ int getItemCount()
}
class com.example.medshering.AdRecycleAdapter.ViewHolder {
- View mView
- TextView titleView
- ImageView ImageView
- TextView userNameView
- CircleImageView userProfileImageView
- ImageView likeBtn
- ImageView commBtn
+ void setDescText(String)
+ void setTitleText(String)
+ void setAdImage(String,String)
+ void setTime(String)
+ void setUserData(String,String,String)
+ void updateLikeCounter(int)
}
class com.example.medshering.NotificationFragment {
+ View onCreateView(LayoutInflater,ViewGroup,Bundle)
}


android.support.v4.app.Fragment <|-- com.example.medshering.HomeFragment
android.support.v7.app.AppCompatActivity <|-- com.example.medshering.SetupActivity
android.support.v7.app.AppCompatActivity <|-- com.example.medshering.NewPostActivity
com.example.medshering.AdPostId <|-- com.example.medshering.AdPost
com.example.medshering.Adapter <|-- com.example.medshering.CommentsRecyclerAdapter
com.example.medshering.CommentsRecyclerAdapter +.. com.example.medshering.CommentsRecyclerAdapter.ViewHolder
com.example.medshering.ViewHolder <|-- com.example.medshering.CommentsRecyclerAdapter.ViewHolder
android.support.v4.app.Fragment <|-- com.example.medshering.AccountFragment
android.support.v4.app.Fragment <|-- com.example.medshering.AnotherAccountFragment
android.support.v7.app.AppCompatActivity <|-- com.example.medshering.RegisterActivity
android.support.v4.app.Fragment <|-- com.example.medshering.PostFragment
android.support.v7.app.AppCompatActivity <|-- com.example.medshering.LoginActivity
android.support.v7.app.AppCompatActivity <|-- com.example.medshering.MainActivity
com.example.medshering.Adapter <|-- com.example.medshering.AccountAdRecycleAdapter
com.example.medshering.AccountAdRecycleAdapter +.. com.example.medshering.AccountAdRecycleAdapter.ViewHolderAd
com.example.medshering.ViewHolder <|-- com.example.medshering.AccountAdRecycleAdapter.ViewHolderAd
com.example.medshering.AccountAdRecycleAdapter +.. com.example.medshering.AccountAdRecycleAdapter.ViewHolderUserData
com.example.medshering.ViewHolder <|-- com.example.medshering.AccountAdRecycleAdapter.ViewHolderUserData
android.support.v7.app.AppCompatActivity <|-- com.example.medshering.CommentsActivity
com.example.medshering.Adapter <|-- com.example.medshering.AnotherAccountAdRecycleAdapter
com.example.medshering.AnotherAccountAdRecycleAdapter +.. com.example.medshering.AnotherAccountAdRecycleAdapter.ViewHolder
com.example.medshering.ViewHolder <|-- com.example.medshering.AnotherAccountAdRecycleAdapter.ViewHolder
com.example.medshering.AnotherAccountAdRecycleAdapter +.. com.example.medshering.AnotherAccountAdRecycleAdapter.ViewHolderUserData
com.example.medshering.ViewHolder <|-- com.example.medshering.AnotherAccountAdRecycleAdapter.ViewHolderUserData
com.example.medshering.Adapter <|-- com.example.medshering.AdRecycleAdapter
com.example.medshering.AdRecycleAdapter +.. com.example.medshering.AdRecycleAdapter.ViewHolder
com.example.medshering.ViewHolder <|-- com.example.medshering.AdRecycleAdapter.ViewHolder
android.support.v4.app.Fragment <|-- com.example.medshering.NotificationFragment
@enduml